<svg width="185" height="170" viewBox="0 0 185 170" fill="none" xmlns="http://www.w3.org/2000/svg">
<g clip-path="url(#clip0_108_5876)">
<mask id="mask0_108_5876" style="mask-type:alpha" maskUnits="userSpaceOnUse" x="16" y="4" width="116" height="153">
<path d="M82.6605 44.58C76.9405 52.06 70.8538 60.2 64.4005 69C57.9471 77.8 52.5205 86.82 48.1205 96.06H82.6605V44.58ZM114.78 4.54V96.06H131.06V122.9H114.78V157H82.6605V122.9H16.8805V98.92C20.1071 92.4667 24.1405 85.2067 28.9805 77.14C33.8205 68.9267 39.1738 60.5667 45.0405 52.06C51.0538 43.4067 57.3605 34.9733 63.9605 26.76C70.5605 18.5467 77.1605 11.14 83.7605 4.54H114.78Z" fill="black"/>
</mask>
<g mask="url(#mask0_108_5876)">
<path d="M135.471 238.94L-137 16.6714" stroke="#3E41DE" stroke-width="0.5" stroke-miterlimit="10"/>
<path d="M126.471 287.158L-146 64.8896" stroke="#3E41DE" stroke-width="0.5" stroke-miterlimit="10"/>
<path d="M125.471 238.94L-147 16.6719" stroke="#3E41DE" stroke-width="0.5" stroke-miterlimit="10"/>
<path d="M116.471 287.158L-156 64.8901" stroke="#3E41DE" stroke-width="0.5" stroke-miterlimit="10"/>
<path d="M142.041 237.349L-131.766 13.9453" stroke="#3E41DE" stroke-width="0.5" stroke-miterlimit="10"/>
<path d="M133.041 285.567L-140.766 62.1636" stroke="#3E41DE" stroke-width="0.5" stroke-miterlimit="10"/>
<path d="M148.444 235.624L-125.975 11.7212" stroke="#3E41DE" stroke-width="0.5" stroke-miterlimit="10"/>
<path d="M139.444 283.843L-134.975 59.9395" stroke="#3E41DE" stroke-width="0.5" stroke-miterlimit="10"/>
<path d="M154.735 233.807L-123.859 6.54346" stroke="#3E41DE" stroke-width="0.5" stroke-miterlimit="10"/>
<path d="M145.735 282.026L-132.859 54.7617" stroke="#3E41DE" stroke-width="0.5" stroke-miterlimit="10"/>
<path d="M160.915 231.9L-119.35 3.27393" stroke="#3E41DE" stroke-width="0.5" stroke-miterlimit="10"/>
<path d="M151.915 280.119L-128.35 51.4922" stroke="#3E41DE" stroke-width="0.5" stroke-miterlimit="10"/>
<path d="M166.983 229.903L-114.785 0.050293" stroke="#3E41DE" stroke-width="0.5" stroke-miterlimit="10"/>
<path d="M157.983 278.121L-123.785 48.2686" stroke="#3E41DE" stroke-width="0.5" stroke-miterlimit="10"/>
<path d="M172.886 227.767L-110.107 -3.08447" stroke="#3E41DE" stroke-width="0.5" stroke-miterlimit="10"/>
<path d="M163.886 275.986L-119.107 45.1338" stroke="#3E41DE" stroke-width="0.5" stroke-miterlimit="10"/>
<path d="M178.675 225.542L-105.432 -6.21826" stroke="#3E41DE" stroke-width="0.5" stroke-miterlimit="10"/>
<path d="M169.675 273.76L-114.432 42" stroke="#3E41DE" stroke-width="0.5" stroke-miterlimit="10"/>
<path d="M184.353 223.225L-100.645 -9.26147" stroke="#3E41DE" stroke-width="0.5" stroke-miterlimit="10"/>
<path d="M189.921 220.773L-95.8555 -12.3042" stroke="#3E41DE" stroke-width="0.5" stroke-miterlimit="10"/>
<path d="M195.321 218.275L-90.957 -15.2563" stroke="#3E41DE" stroke-width="0.5" stroke-miterlimit="10"/>
<path d="M200.61 215.641L-86.002 -18.163" stroke="#3E41DE" stroke-width="0.5" stroke-miterlimit="10"/>
<path d="M205.789 212.915L-80.9902 -21.0253" stroke="#3E41DE" stroke-width="0.5" stroke-miterlimit="10"/>
<path d="M210.855 210.099L-75.9238 -23.8411" stroke="#3E41DE" stroke-width="0.5" stroke-miterlimit="10"/>
<path d="M215.754 207.147L-70.8027 -26.6567" stroke="#3E41DE" stroke-width="0.5" stroke-miterlimit="10"/>
<path d="M220.598 204.151L-65.6797 -29.3809" stroke="#3E41DE" stroke-width="0.5" stroke-miterlimit="10"/>
<path d="M225.274 201.016L-60.4473 -32.0615" stroke="#3E41DE" stroke-width="0.5" stroke-miterlimit="10"/>
<path d="M229.839 197.791L-55.1582 -34.6963" stroke="#3E41DE" stroke-width="0.5" stroke-miterlimit="10"/>
<path d="M234.238 194.433L-49.8125 -37.2817" stroke="#3E41DE" stroke-width="0.5" stroke-miterlimit="10"/>
<path d="M238.581 191.024L-44.4121 -39.8276" stroke="#3E41DE" stroke-width="0.5" stroke-miterlimit="10"/>
<path d="M242.755 187.483L-38.957 -42.3247" stroke="#3E41DE" stroke-width="0.5" stroke-miterlimit="10"/>
<path d="M246.82 183.848L-33.4453 -44.7783" stroke="#3E41DE" stroke-width="0.5" stroke-miterlimit="10"/>
<path d="M250.774 180.126L-27.877 -47.1831" stroke="#3E41DE" stroke-width="0.5" stroke-miterlimit="10"/>
<path d="M254.559 176.265L-22.2539 -49.5459" stroke="#3E41DE" stroke-width="0.5" stroke-miterlimit="10"/>
<path d="M258.233 172.315L-16.5762 -51.8608" stroke="#3E41DE" stroke-width="0.5" stroke-miterlimit="10"/>
<path d="M261.796 168.271L-10.8418 -54.1338" stroke="#3E41DE" stroke-width="0.5" stroke-miterlimit="10"/>
<path d="M265.248 164.139L-5.05078 -56.3584" stroke="#3E41DE" stroke-width="0.5" stroke-miterlimit="10"/>
<path d="M268.533 159.87L0.794922 -58.5381" stroke="#3E41DE" stroke-width="0.5" stroke-miterlimit="10"/>
<path d="M271.708 155.51L6.69727 -60.6729" stroke="#3E41DE" stroke-width="0.5" stroke-miterlimit="10"/>
<path d="M274.713 151.014L12.709 -62.7163" stroke="#3E41DE" stroke-width="0.5" stroke-miterlimit="10"/>
<path d="M277.609 146.428L18.7227 -64.7588" stroke="#3E41DE" stroke-width="0.5" stroke-miterlimit="10"/>
<path d="M280.391 141.749L24.8457 -66.7129" stroke="#3E41DE" stroke-width="0.5" stroke-miterlimit="10"/>
<path d="M283.008 136.934L31.0254 -68.6206" stroke="#3E41DE" stroke-width="0.5" stroke-miterlimit="10"/>
<path d="M318.721 159.636L33 -73.4409" stroke="#3E41DE" stroke-width="0.5" stroke-miterlimit="10"/>
<path d="M323.286 156.411L38.2891 -76.0757" stroke="#3E41DE" stroke-width="0.5" stroke-miterlimit="10"/>
<path d="M327.686 153.054L43.6348 -78.6611" stroke="#3E41DE" stroke-width="0.5" stroke-miterlimit="10"/>
<path d="M332.028 149.645L49.0352 -81.207" stroke="#3E41DE" stroke-width="0.5" stroke-miterlimit="10"/>
<path d="M336.203 146.103L54.4902 -83.7041" stroke="#3E41DE" stroke-width="0.5" stroke-miterlimit="10"/>
<path d="M340.267 142.469L60.002 -86.1577" stroke="#3E41DE" stroke-width="0.5" stroke-miterlimit="10"/>
<path d="M344.221 138.747L65.5703 -88.5625" stroke="#3E41DE" stroke-width="0.5" stroke-miterlimit="10"/>
<path d="M348.007 134.885L71.1934 -90.9253" stroke="#3E41DE" stroke-width="0.5" stroke-miterlimit="10"/>
<path d="M351.68 130.935L76.8711 -93.2402" stroke="#3E41DE" stroke-width="0.5" stroke-miterlimit="10"/>
<path d="M355.243 126.891L82.6055 -95.5132" stroke="#3E41DE" stroke-width="0.5" stroke-miterlimit="10"/>
<path d="M358.696 122.759L88.3965 -97.7378" stroke="#3E41DE" stroke-width="0.5" stroke-miterlimit="10"/>
<path d="M361.98 118.49L94.2422 -99.9175" stroke="#3E41DE" stroke-width="0.5" stroke-miterlimit="10"/>
<path d="M365.155 114.13L100.145 -102.052" stroke="#3E41DE" stroke-width="0.5" stroke-miterlimit="10"/>
<path d="M368.16 109.634L106.156 -104.096" stroke="#3E41DE" stroke-width="0.5" stroke-miterlimit="10"/>
<path d="M371.056 105.048L112.17 -106.138" stroke="#3E41DE" stroke-width="0.5" stroke-miterlimit="10"/>
<path d="M373.838 100.369L118.293 -108.092" stroke="#3E41DE" stroke-width="0.5" stroke-miterlimit="10"/>
<path d="M376.455 95.555L124.473 -110" stroke="#3E41DE" stroke-width="0.5" stroke-miterlimit="10"/>
</g>
</g>
<circle cx="130.5" cy="100.5" r="52.5" fill="#3E41DE"/>
<path d="M128.42 83.0434C129.967 82.1502 131.873 82.1502 133.42 83.0434L146.607 90.6566C148.154 91.5498 149.107 93.2004 149.107 94.9867V110.213C149.107 112 148.154 113.65 146.607 114.543L133.42 122.157C131.873 123.05 129.967 123.05 128.42 122.157L115.233 114.543C113.686 113.65 112.733 112 112.733 110.213V94.9867C112.733 93.2004 113.686 91.5498 115.233 90.6566L128.42 83.0434Z" stroke="white" stroke-width="2"/>
<path d="M130.92 122.76L130.92 102.6" stroke="white" stroke-width="2" stroke-linecap="round"/>
<path d="M130.92 81.6L130.92 62.28" stroke="white" stroke-width="2" stroke-linecap="round"/>
<path d="M149.4 112.68L166.184 122.25" stroke="white" stroke-width="2" stroke-linecap="round"/>
<path d="M112.392 112.68L95.6088 122.25" stroke="white" stroke-width="2" stroke-linecap="round"/>
<path d="M124.2 69L130.994 62.28L137.64 69" stroke="white" stroke-width="2" stroke-linecap="round" stroke-linejoin="round"/>
<path d="M163.675 113.084L166.147 122.314L157.017 124.759" stroke="white" stroke-width="2" stroke-linecap="round" stroke-linejoin="round"/>
<path d="M98.1176 113.084L95.6453 122.314L104.775 124.759" stroke="white" stroke-width="2" stroke-linecap="round" stroke-linejoin="round"/>
<path d="M130.921 102.602L148.263 92.4498" stroke="white" stroke-width="2" stroke-linecap="round"/>
<path d="M130.919 102.602L113.577 92.4498" stroke="white" stroke-width="2" stroke-linecap="round"/>
<defs>
<clipPath id="clip0_108_5876">
<rect width="150" height="160" fill="white"/>
</clipPath>
</defs>
</svg>
