<svg width="185" height="170" viewBox="0 0 185 170" fill="none" xmlns="http://www.w3.org/2000/svg">
<mask id="mask0_108_5817" style="mask-type:alpha" maskUnits="userSpaceOnUse" x="8" y="4" width="136" height="154">
<path d="M100.695 110.056C100.695 105.881 99.4514 102.21 96.9644 99.0429C94.4775 95.7317 90.1731 92.9963 84.0514 90.8368C77.9296 88.6773 69.7035 87.0217 59.3731 85.8699C49.0427 84.7182 36.034 84.1423 20.347 84.1423C22.4514 70.7534 24.1731 57.1484 25.5122 43.3276C26.8514 29.5067 27.9035 16.5497 28.6688 4.45642H136.277V31.4503H64.5383C64.1557 36.6331 63.6775 41.672 63.1035 46.5668C62.7209 51.3178 62.2427 55.4928 61.6688 59.092C89.5992 60.5317 110.164 65.4986 123.364 73.9926C136.756 82.3427 143.451 94.0041 143.451 108.977C143.451 115.887 141.825 122.294 138.573 128.196C135.321 134.099 130.443 139.21 123.938 143.529C117.434 147.848 109.208 151.231 99.2601 153.678C89.5035 156.126 78.0253 157.35 64.8253 157.35C59.6601 157.35 54.2079 157.062 48.4687 156.486C42.9209 156.054 37.4688 155.406 32.1122 154.542C26.947 153.822 22.2601 153.031 18.0514 152.167C13.8427 151.303 10.5905 150.439 8.29484 149.575L16.0427 123.013C20.8253 124.597 27.1383 126.181 34.9818 127.764C42.8253 129.204 52.1992 129.924 63.1035 129.924C76.3035 129.924 85.8688 127.98 91.7992 124.093C97.7296 120.062 100.695 115.383 100.695 110.056Z" fill="#E7EDFB"/>
</mask>
<g mask="url(#mask0_108_5817)">
<path d="M165.09 269.117L-200.473 2.61951" stroke="#3E41DE" stroke-width="0.5" stroke-miterlimit="10"/>
<path d="M173.004 266.787L-194.519 -1.1394" stroke="#3E41DE" stroke-width="0.5" stroke-miterlimit="10"/>
<path d="M180.703 264.298L-188.418 -4.79321" stroke="#3E41DE" stroke-width="0.5" stroke-miterlimit="10"/>
<path d="M188.255 261.706L-182.319 -8.4436" stroke="#3E41DE" stroke-width="0.5" stroke-miterlimit="10"/>
<path d="M195.661 259.007L-176.075 -11.9904" stroke="#3E41DE" stroke-width="0.5" stroke-miterlimit="10"/>
<path d="M202.924 256.148L-169.828 -15.5371" stroke="#3E41DE" stroke-width="0.5" stroke-miterlimit="10"/>
<path d="M209.967 253.235L-163.439 -18.9799" stroke="#3E41DE" stroke-width="0.5" stroke-miterlimit="10"/>
<path d="M216.865 250.162L-156.976 -22.3699" stroke="#3E41DE" stroke-width="0.5" stroke-miterlimit="10"/>
<path d="M223.62 246.989L-150.439 -25.702" stroke="#3E41DE" stroke-width="0.5" stroke-miterlimit="10"/>
<path d="M230.229 243.707L-143.831 -28.9843" stroke="#3E41DE" stroke-width="0.5" stroke-miterlimit="10"/>
<path d="M236.618 240.266L-137.151 -32.2664" stroke="#3E41DE" stroke-width="0.5" stroke-miterlimit="10"/>
<path d="M242.937 236.771L-130.469 -35.4441" stroke="#3E41DE" stroke-width="0.5" stroke-miterlimit="10"/>
<path d="M249.036 233.119L-123.644 -38.5663" stroke="#3E41DE" stroke-width="0.5" stroke-miterlimit="10"/>
<path d="M254.991 229.359L-116.745 -41.6381" stroke="#3E41DE" stroke-width="0.5" stroke-miterlimit="10"/>
<path d="M260.729 225.442L-109.772 -44.6554" stroke="#3E41DE" stroke-width="0.5" stroke-miterlimit="10"/>
<path d="M266.393 221.471L-102.728 -47.6201" stroke="#3E41DE" stroke-width="0.5" stroke-miterlimit="10"/>
<path d="M271.838 217.34L-95.6131 -50.5333" stroke="#3E41DE" stroke-width="0.5" stroke-miterlimit="10"/>
<path d="M277.139 213.107L-88.4239 -53.3906" stroke="#3E41DE" stroke-width="0.5" stroke-miterlimit="10"/>
<path d="M282.296 208.766L-81.1608 -56.1964" stroke="#3E41DE" stroke-width="0.5" stroke-miterlimit="10"/>
<path d="M287.234 204.266L-73.8264 -58.9492" stroke="#3E41DE" stroke-width="0.5" stroke-miterlimit="10"/>
<path d="M292.026 199.66L-66.4207 -61.649" stroke="#3E41DE" stroke-width="0.5" stroke-miterlimit="10"/>
<path d="M296.673 194.95L-58.941 -64.2948" stroke="#3E41DE" stroke-width="0.5" stroke-miterlimit="10"/>
<path d="M301.177 190.131L-51.3875 -66.8901" stroke="#3E41DE" stroke-width="0.5" stroke-miterlimit="10"/>
<path d="M305.461 185.153L-43.7627 -69.4329" stroke="#3E41DE" stroke-width="0.5" stroke-miterlimit="10"/>
<path d="M309.602 180.074L-36.064 -71.9175" stroke="#3E41DE" stroke-width="0.5" stroke-miterlimit="10"/>
<path d="M313.521 174.832L-28.2226 -74.3015" stroke="#3E41DE" stroke-width="0.5" stroke-miterlimit="10"/>
<path d="M317.299 169.485L-20.3787 -76.6838" stroke="#3E41DE" stroke-width="0.5" stroke-miterlimit="10"/>
<path d="M320.928 164.032L-12.3921 -78.9602" stroke="#3E41DE" stroke-width="0.5" stroke-miterlimit="10"/>
<path d="M324.341 158.419L-4.33167 -81.1851" stroke="#3E41DE" stroke-width="0.5" stroke-miterlimit="10"/>
<path d="M327.538 152.649L3.80267 -83.3553" stroke="#3E41DE" stroke-width="0.5" stroke-miterlimit="10"/>
<path d="M330.587 146.773L12.0083 -85.4719" stroke="#3E41DE" stroke-width="0.5" stroke-miterlimit="10"/>
</g>
<circle cx="130.5" cy="100.5" r="52.5" fill="#3E41DE"/>
<circle cx="112.44" cy="92.5199" r="0.84" fill="white"/>
<path d="M106.72 81.1241C106.72 80.5807 106.941 80.0607 107.332 79.6837L115.932 71.3996C116.305 71.0406 116.802 70.84 117.319 70.84H143.2C143.752 70.84 144.2 71.2877 144.2 71.84V114.88C144.2 115.432 143.752 115.88 143.2 115.88H107.72C107.168 115.88 106.72 115.432 106.72 114.88V81.1241Z" stroke="white" stroke-width="2"/>
<path d="M112.44 116.058V119.08C112.44 120.185 113.335 121.08 114.44 121.08H146.4C148.057 121.08 149.4 119.737 149.4 118.08V76.88C149.4 75.7754 148.505 74.88 147.4 74.88H143.753" stroke="white" stroke-width="2"/>
<path d="M117.48 120.258V123.28C117.48 124.385 118.375 125.28 119.48 125.28H148.44C151.754 125.28 154.44 122.594 154.44 119.28V81.08C154.44 79.9754 153.545 79.08 152.44 79.08H148.793" stroke="white" stroke-width="2"/>
<path d="M117.48 70.6799V78.7599C117.48 79.8645 116.585 80.7599 115.48 80.7599H106.56" stroke="white" stroke-width="2"/>
<path d="M112.44 86.64H139.32" stroke="white" stroke-width="2" stroke-linecap="round"/>
<path d="M116.64 92.52H139.32" stroke="white" stroke-width="2" stroke-linecap="round"/>
<path d="M112.44 98.3999H139.32" stroke="white" stroke-width="2" stroke-linecap="round"/>
<path d="M112.44 104.28H139.32" stroke="white" stroke-width="2" stroke-linecap="round"/>
<path d="M112.44 110.16H139.32" stroke="white" stroke-width="2" stroke-linecap="round"/>
</svg>
