<svg width="185" height="170" viewBox="0 0 185 170" fill="none" xmlns="http://www.w3.org/2000/svg">
<g clip-path="url(#clip0_108_11866)">
<mask id="mask0_108_11866" style="mask-type:alpha" maskUnits="userSpaceOnUse" x="18" y="1" width="106" height="160">
<path d="M62.6405 160.3C58.6805 160.3 54.5005 160.007 50.1005 159.42C45.7005 158.98 41.4471 158.32 37.3405 157.44C33.2338 156.56 29.4938 155.607 26.1205 154.58C22.7471 153.553 20.1071 152.6 18.2005 151.72L24.5805 124.44C28.3938 126.053 33.2338 127.813 39.1005 129.72C45.1138 131.48 52.5205 132.36 61.3205 132.36C71.4405 132.36 78.8471 130.453 83.5405 126.64C88.2338 122.827 90.5805 117.693 90.5805 111.24C90.5805 107.28 89.7005 103.98 87.9405 101.34C86.3271 98.5533 84.0538 96.3533 81.1205 94.74C78.1871 92.98 74.6671 91.8067 70.5605 91.22C66.6005 90.4867 62.3471 90.12 57.8005 90.12H45.0405V63.72H59.5605C62.7871 63.72 65.8671 63.4267 68.8005 62.84C71.8805 62.2533 74.5938 61.3 76.9405 59.98C79.2871 58.5133 81.1205 56.6067 82.4405 54.26C83.9071 51.7667 84.6405 48.6867 84.6405 45.02C84.6405 42.2333 84.0538 39.8133 82.8805 37.76C81.7071 35.7067 80.1671 34.02 78.2605 32.7C76.5005 31.38 74.3738 30.4267 71.8805 29.84C69.5338 29.1067 67.1138 28.74 64.6205 28.74C58.3138 28.74 52.4471 29.6933 47.0205 31.6C41.7405 33.5067 36.9005 35.8533 32.5005 38.64L20.8405 14.66C23.1871 13.1933 25.9005 11.6533 28.9805 10.04C32.2071 8.42666 35.7271 6.96 39.5405 5.63999C43.3538 4.31999 47.3871 3.22 51.6405 2.34C56.0405 1.45999 60.6605 1.01999 65.5005 1.01999C74.4471 1.01999 82.1471 2.11999 88.6005 4.32C95.2005 6.37333 100.627 9.37999 104.88 13.34C109.134 17.1533 112.287 21.7 114.34 26.98C116.394 32.1133 117.42 37.76 117.42 43.92C117.42 49.9333 115.734 55.8 112.36 61.52C108.987 67.0933 104.44 71.3467 98.7205 74.28C106.64 77.5067 112.727 82.3467 116.98 88.8C121.38 95.1067 123.58 102.733 123.58 111.68C123.58 118.72 122.407 125.247 120.06 131.26C117.714 137.127 114.047 142.26 109.06 146.66C104.074 150.913 97.6938 154.287 89.9205 156.78C82.2938 159.127 73.2005 160.3 62.6405 160.3Z" fill="black"/>
</mask>
<g mask="url(#mask0_108_11866)">
<path d="M135.471 238.94L-137 16.6714" stroke="#3E41DE" stroke-width="0.5" stroke-miterlimit="10"/>
<path d="M126.471 287.158L-146 64.8896" stroke="#3E41DE" stroke-width="0.5" stroke-miterlimit="10"/>
<path d="M125.471 238.94L-147 16.6719" stroke="#3E41DE" stroke-width="0.5" stroke-miterlimit="10"/>
<path d="M116.471 287.158L-156 64.8901" stroke="#3E41DE" stroke-width="0.5" stroke-miterlimit="10"/>
<path d="M142.041 237.349L-131.766 13.9453" stroke="#3E41DE" stroke-width="0.5" stroke-miterlimit="10"/>
<path d="M133.041 285.567L-140.766 62.1636" stroke="#3E41DE" stroke-width="0.5" stroke-miterlimit="10"/>
<path d="M148.444 235.624L-125.975 11.7212" stroke="#3E41DE" stroke-width="0.5" stroke-miterlimit="10"/>
<path d="M139.444 283.843L-134.975 59.9395" stroke="#3E41DE" stroke-width="0.5" stroke-miterlimit="10"/>
<path d="M154.735 233.807L-123.859 6.54346" stroke="#3E41DE" stroke-width="0.5" stroke-miterlimit="10"/>
<path d="M145.735 282.026L-132.859 54.7617" stroke="#3E41DE" stroke-width="0.5" stroke-miterlimit="10"/>
<path d="M160.915 231.9L-119.35 3.27393" stroke="#3E41DE" stroke-width="0.5" stroke-miterlimit="10"/>
<path d="M151.915 280.119L-128.35 51.4922" stroke="#3E41DE" stroke-width="0.5" stroke-miterlimit="10"/>
<path d="M166.983 229.903L-114.785 0.050293" stroke="#3E41DE" stroke-width="0.5" stroke-miterlimit="10"/>
<path d="M157.983 278.121L-123.785 48.2686" stroke="#3E41DE" stroke-width="0.5" stroke-miterlimit="10"/>
<path d="M172.886 227.767L-110.107 -3.08447" stroke="#3E41DE" stroke-width="0.5" stroke-miterlimit="10"/>
<path d="M163.886 275.986L-119.107 45.1338" stroke="#3E41DE" stroke-width="0.5" stroke-miterlimit="10"/>
<path d="M178.675 225.542L-105.432 -6.21826" stroke="#3E41DE" stroke-width="0.5" stroke-miterlimit="10"/>
<path d="M169.675 273.76L-114.432 42" stroke="#3E41DE" stroke-width="0.5" stroke-miterlimit="10"/>
<path d="M184.353 223.225L-100.645 -9.26147" stroke="#3E41DE" stroke-width="0.5" stroke-miterlimit="10"/>
<path d="M189.921 220.773L-95.8555 -12.3042" stroke="#3E41DE" stroke-width="0.5" stroke-miterlimit="10"/>
<path d="M195.321 218.275L-90.957 -15.2563" stroke="#3E41DE" stroke-width="0.5" stroke-miterlimit="10"/>
<path d="M200.61 215.641L-86.002 -18.163" stroke="#3E41DE" stroke-width="0.5" stroke-miterlimit="10"/>
<path d="M205.789 212.915L-80.9902 -21.0253" stroke="#3E41DE" stroke-width="0.5" stroke-miterlimit="10"/>
<path d="M210.855 210.099L-75.9238 -23.8411" stroke="#3E41DE" stroke-width="0.5" stroke-miterlimit="10"/>
<path d="M215.754 207.147L-70.8027 -26.6567" stroke="#3E41DE" stroke-width="0.5" stroke-miterlimit="10"/>
<path d="M220.598 204.151L-65.6797 -29.3809" stroke="#3E41DE" stroke-width="0.5" stroke-miterlimit="10"/>
<path d="M225.274 201.016L-60.4473 -32.0615" stroke="#3E41DE" stroke-width="0.5" stroke-miterlimit="10"/>
<path d="M229.839 197.791L-55.1582 -34.6963" stroke="#3E41DE" stroke-width="0.5" stroke-miterlimit="10"/>
<path d="M234.238 194.433L-49.8125 -37.2817" stroke="#3E41DE" stroke-width="0.5" stroke-miterlimit="10"/>
<path d="M238.581 191.024L-44.4121 -39.8276" stroke="#3E41DE" stroke-width="0.5" stroke-miterlimit="10"/>
<path d="M242.755 187.483L-38.957 -42.3247" stroke="#3E41DE" stroke-width="0.5" stroke-miterlimit="10"/>
<path d="M246.82 183.848L-33.4453 -44.7783" stroke="#3E41DE" stroke-width="0.5" stroke-miterlimit="10"/>
<path d="M250.774 180.126L-27.877 -47.1831" stroke="#3E41DE" stroke-width="0.5" stroke-miterlimit="10"/>
<path d="M254.559 176.265L-22.2539 -49.5459" stroke="#3E41DE" stroke-width="0.5" stroke-miterlimit="10"/>
<path d="M258.233 172.315L-16.5762 -51.8608" stroke="#3E41DE" stroke-width="0.5" stroke-miterlimit="10"/>
<path d="M261.796 168.271L-10.8418 -54.1338" stroke="#3E41DE" stroke-width="0.5" stroke-miterlimit="10"/>
<path d="M265.248 164.139L-5.05078 -56.3584" stroke="#3E41DE" stroke-width="0.5" stroke-miterlimit="10"/>
<path d="M268.533 159.87L0.794922 -58.5381" stroke="#3E41DE" stroke-width="0.5" stroke-miterlimit="10"/>
<path d="M271.708 155.51L6.69727 -60.6729" stroke="#3E41DE" stroke-width="0.5" stroke-miterlimit="10"/>
<path d="M274.713 151.014L12.709 -62.7163" stroke="#3E41DE" stroke-width="0.5" stroke-miterlimit="10"/>
<path d="M277.609 146.428L18.7227 -64.7588" stroke="#3E41DE" stroke-width="0.5" stroke-miterlimit="10"/>
<path d="M280.391 141.749L24.8457 -66.7129" stroke="#3E41DE" stroke-width="0.5" stroke-miterlimit="10"/>
<path d="M283.008 136.934L31.0254 -68.6206" stroke="#3E41DE" stroke-width="0.5" stroke-miterlimit="10"/>
<path d="M318.721 159.636L33 -73.4409" stroke="#3E41DE" stroke-width="0.5" stroke-miterlimit="10"/>
<path d="M323.286 156.411L38.2891 -76.0757" stroke="#3E41DE" stroke-width="0.5" stroke-miterlimit="10"/>
<path d="M327.686 153.054L43.6348 -78.6611" stroke="#3E41DE" stroke-width="0.5" stroke-miterlimit="10"/>
<path d="M332.028 149.645L49.0352 -81.207" stroke="#3E41DE" stroke-width="0.5" stroke-miterlimit="10"/>
<path d="M336.203 146.103L54.4902 -83.7041" stroke="#3E41DE" stroke-width="0.5" stroke-miterlimit="10"/>
<path d="M340.267 142.469L60.002 -86.1577" stroke="#3E41DE" stroke-width="0.5" stroke-miterlimit="10"/>
<path d="M344.221 138.747L65.5703 -88.5625" stroke="#3E41DE" stroke-width="0.5" stroke-miterlimit="10"/>
<path d="M348.007 134.885L71.1934 -90.9253" stroke="#3E41DE" stroke-width="0.5" stroke-miterlimit="10"/>
<path d="M351.68 130.935L76.8711 -93.2402" stroke="#3E41DE" stroke-width="0.5" stroke-miterlimit="10"/>
<path d="M355.243 126.891L82.6055 -95.5132" stroke="#3E41DE" stroke-width="0.5" stroke-miterlimit="10"/>
<path d="M358.696 122.759L88.3965 -97.7378" stroke="#3E41DE" stroke-width="0.5" stroke-miterlimit="10"/>
<path d="M361.98 118.49L94.2422 -99.9175" stroke="#3E41DE" stroke-width="0.5" stroke-miterlimit="10"/>
<path d="M365.155 114.13L100.145 -102.052" stroke="#3E41DE" stroke-width="0.5" stroke-miterlimit="10"/>
<path d="M368.16 109.634L106.156 -104.096" stroke="#3E41DE" stroke-width="0.5" stroke-miterlimit="10"/>
<path d="M371.056 105.048L112.17 -106.138" stroke="#3E41DE" stroke-width="0.5" stroke-miterlimit="10"/>
<path d="M373.838 100.369L118.293 -108.092" stroke="#3E41DE" stroke-width="0.5" stroke-miterlimit="10"/>
</g>
</g>
<circle cx="130.5" cy="100.5" r="52.5" fill="#3E41DE"/>
<path d="M142.68 67.3201L137.64 67.3201" stroke="white" stroke-width="2" stroke-linecap="round"/>
<path d="M144.424 73.2933L142.153 73.2933" stroke="white" stroke-width="2" stroke-linecap="round"/>
<path d="M146.695 76.3219L142.153 76.3219" stroke="white" stroke-width="2" stroke-linecap="round"/>
<path d="M146.695 70.2648L142.153 70.2648" stroke="white" stroke-width="2" stroke-linecap="round"/>
<path d="M144.424 79.3489L142.153 79.3489" stroke="white" stroke-width="2" stroke-linecap="round"/>
<path d="M144.424 86.1624L142.153 86.1624" stroke="white" stroke-width="2" stroke-linecap="round"/>
<path d="M146.695 82.3774L142.153 82.3774" stroke="white" stroke-width="2" stroke-linecap="round"/>
<path d="M150.92 67.4797L142 67.4797L142 91.1107L150.92 95.8895L150.92 67.4797Z" stroke="white" stroke-width="2"/>
<path d="M121.4 88.4801C114.22 88.4801 108.4 94.3004 108.4 101.48L108.4 109.8C108.4 119.189 116.011 126.8 125.4 126.8L136.92 126.8C144.652 126.8 150.92 120.532 150.92 112.8L150.92 95.5063L142.448 90.9683C139.398 89.3348 135.992 88.4801 132.533 88.4801L121.4 88.4801Z" fill="#3E41DE" stroke="white" stroke-width="2"/>
<path d="M112.8 96.24C112.8 93.6397 115.029 91.64 117.64 91.64C118.917 91.64 119.84 90.6848 119.84 89.64C119.84 88.5953 118.917 87.64 117.64 87.64C112.475 87.64 108.4 91.5502 108.4 96.24C108.4 97.2848 109.323 98.24 110.6 98.24C111.877 98.24 112.8 97.2848 112.8 96.24Z" fill="#3E41DE" stroke="white" stroke-width="2" stroke-linecap="round"/>
<ellipse rx="0.757038" ry="0.757037" transform="matrix(-1 0 0 1 148.966 70.2655)" fill="white"/>
<path d="M115.142 108.873C115.142 115.847 120.795 121.5 127.769 121.5C134.742 121.5 140.396 115.847 140.396 108.873C140.396 101.9 134.742 96.2465 127.769 96.2465C120.795 96.2465 115.142 101.9 115.142 108.873Z" stroke="white" stroke-width="2"/>
<rect x="1" y="1" width="9.35555" height="22.2252" rx="4.67778" transform="matrix(4.37114e-08 1 1 -4.37114e-08 122.469 103.574)" fill="#3E41DE" stroke="white" stroke-width="2"/>
<defs>
<clipPath id="clip0_108_11866">
<rect width="150" height="160" fill="white"/>
</clipPath>
</defs>
</svg>
