<svg width="100" height="100" viewBox="0 0 100 100" fill="none" xmlns="http://www.w3.org/2000/svg">
<circle cx="50" cy="50" r="49" stroke="#3E41DE" stroke-width="2"/>
<path d="M61.4784 41.668H40.4295C39.8358 41.668 39.3501 42.1338 39.3501 42.7031C39.3501 43.2725 39.8358 43.7383 40.4295 43.7383H61.4784C62.0721 43.7383 62.5579 43.2725 62.5579 42.7031C62.5579 42.1338 62.0721 41.668 61.4784 41.668Z" fill="#3E41DE"/>
<path d="M61.4787 46.3262H35.572C34.9783 46.3262 34.4926 46.792 34.4926 47.3613C34.4926 47.9307 34.9783 48.3965 35.572 48.3965H61.4787C62.0724 48.3965 62.5581 47.9307 62.5581 47.3613C62.5581 46.792 62.0724 46.3262 61.4787 46.3262Z" fill="#3E41DE"/>
<path d="M35.572 39.0801H61.4787C62.0724 39.0801 62.5581 38.6143 62.5581 38.0449C62.5581 37.4756 62.0724 37.0098 61.4787 37.0098H35.572C34.9783 37.0098 34.4926 37.4756 34.4926 38.0449C34.4926 38.6143 34.9783 39.0801 35.572 39.0801Z" fill="#3E41DE"/>
<path d="M46.3666 50.9844H35.572C34.9783 50.9844 34.4926 51.4502 34.4926 52.0195C34.4926 52.5889 34.9783 53.0547 35.572 53.0547H46.3666C46.9603 53.0547 47.446 52.5889 47.446 52.0195C47.446 51.4502 46.9603 50.9844 46.3666 50.9844Z" fill="#3E41DE"/>
<path d="M42.0487 55.6426H35.572C34.9783 55.6426 34.4926 56.1084 34.4926 56.6777C34.4926 57.2471 34.9783 57.7129 35.572 57.7129H42.0487C42.6424 57.7129 43.1282 57.2471 43.1282 56.6777C43.1282 56.1084 42.6424 55.6426 42.0487 55.6426Z" fill="#3E41DE"/>
<path d="M35.572 43.7383C36.1657 43.7383 36.6515 43.2725 36.6515 42.7031C36.6515 42.1338 36.1657 41.668 35.572 41.668C34.9783 41.668 34.4926 42.1338 34.4926 42.7031C34.4926 43.2725 34.9783 43.7383 35.572 43.7383Z" fill="#3E41DE"/>
<path d="M65.7963 57.7439C64.9327 57.7439 64.1232 58.0648 63.5079 58.6548L60.0429 61.9777L59.4493 61.4084C58.834 60.8183 58.0244 60.4974 57.1609 60.4974C56.2973 60.4974 55.4878 60.8183 54.8725 61.4084C54.2572 61.9984 53.9226 62.7851 53.9226 63.6133C53.9226 64.4414 54.2572 65.2178 54.8725 65.8078L57.7546 68.5717C58.3806 69.1721 59.2118 69.4827 60.0429 69.4827C60.8741 69.4827 61.7053 69.1825 62.3313 68.5717L68.0847 63.0543C69.3476 61.8432 69.3476 59.8763 68.0847 58.6652C67.4694 58.0752 66.6598 57.7439 65.7963 57.7439ZM66.5627 61.5844L60.8093 67.1018C60.3884 67.5055 59.7083 67.5055 59.2874 67.1018L56.4053 64.3379C56.2002 64.1412 56.0923 63.8824 56.0923 63.6029C56.0923 63.3234 56.2002 63.0646 56.4053 62.868C56.6104 62.6713 56.8802 62.5678 57.1717 62.5678C57.4631 62.5678 57.733 62.6713 57.9381 62.868L59.2874 64.1619C59.4924 64.3586 59.7623 64.4621 60.0537 64.4621C60.3452 64.4621 60.615 64.3482 60.8201 64.1619L65.0515 60.1041C65.2566 59.9074 65.5264 59.8039 65.8179 59.8039C66.1093 59.8039 66.3792 59.9074 66.5843 60.1041C66.9836 60.5285 66.9837 61.1806 66.5627 61.5844Z" fill="#3E41DE"/>
<path d="M70.1136 52.2266H69.0342V24.0703C69.0342 22.9316 68.0627 22 66.8753 22H39.8894C39.598 22 39.3281 22.1139 39.123 22.3002L28.3287 32.6518C28.1344 32.8484 28.0156 33.1176 28.0156 33.3867V68.7891C28.0156 69.9277 28.9871 70.8594 30.1745 70.8594H49.6043V71.8945C49.6043 73.6025 51.0616 75 52.8426 75H70.1136C71.8947 75 73.3519 73.6025 73.3519 71.8945V55.332C73.3519 53.624 71.8947 52.2266 70.1136 52.2266ZM38.81 25.5299V32.3516H31.6965L38.81 25.5299ZM30.1745 68.7891V34.4219H38.81C39.9974 34.4219 40.9689 33.4902 40.9689 32.3516V24.0703H66.8753V52.2266H52.8426C51.0616 52.2266 49.6043 53.624 49.6043 55.332V68.7891H30.1745ZM71.1931 71.8945C71.1931 72.4639 70.7073 72.9297 70.1136 72.9297H52.8426C52.249 72.9297 51.7632 72.4639 51.7632 71.8945V55.332C51.7632 54.7627 52.249 54.2969 52.8426 54.2969H70.1136C70.7073 54.2969 71.1931 54.7627 71.1931 55.332V71.8945Z" fill="#3E41DE"/>
</svg>
