<svg width="100" height="100" viewBox="0 0 100 100" fill="none" xmlns="http://www.w3.org/2000/svg">
<circle cx="50" cy="50" r="49" stroke="#3E41DE" stroke-width="2"/>
<circle cx="42" cy="46" r="9" stroke="#3E41DE" stroke-width="2"/>
<mask id="path-3-inside-1_108_7752" fill="white">
<path fill-rule="evenodd" clip-rule="evenodd" d="M33.122 56.0736C26.5307 59.3442 22 66.143 22 74.0001H62C62 66.143 57.4693 59.3442 50.878 56.0736C48.6831 58.4859 45.5184 60 42 60C38.4816 60 35.3169 58.4859 33.122 56.0736Z"/>
</mask>
<path d="M33.122 56.0736L34.6012 54.7276L33.5853 53.611L32.233 54.282L33.122 56.0736ZM22 74.0001H20V76.0001H22V74.0001ZM62 74.0001V76.0001H64V74.0001H62ZM50.878 56.0736L51.767 54.282L50.4147 53.611L49.3988 54.7276L50.878 56.0736ZM32.233 54.282C24.9874 57.8773 20 65.3544 20 74.0001H24C24 66.9317 28.0739 60.8111 34.011 57.8652L32.233 54.282ZM22 76.0001H62V72.0001H22V76.0001ZM64 74.0001C64 65.3544 59.0126 57.8773 51.767 54.282L49.989 57.8652C55.9261 60.8111 60 66.9317 60 74.0001H64ZM49.3988 54.7276C47.5668 56.7408 44.9319 58 42 58V62C46.1048 62 49.7993 60.2309 52.3573 57.4196L49.3988 54.7276ZM42 58C39.0681 58 36.4332 56.7408 34.6012 54.7276L31.6427 57.4196C34.2007 60.2309 37.8952 62 42 62V58Z" fill="#3E41DE" mask="url(#path-3-inside-1_108_7752)"/>
<circle cx="42" cy="64" r="1" fill="#3E41DE"/>
<path d="M42 67V73" stroke="#3E41DE" stroke-width="2" stroke-linecap="round"/>
<mask id="path-7-inside-2_108_7752" fill="white">
<path fill-rule="evenodd" clip-rule="evenodd" d="M62 22C59.7909 22 58 23.7909 58 26V40.3667V44.2333V51L65.6364 44.2333H79C81.2091 44.2333 83 42.4425 83 40.2333V26C83 23.7909 81.2091 22 79 22H62Z"/>
</mask>
<path d="M58 51H56V55.4444L59.3264 52.4969L58 51ZM65.6364 44.2333V42.2333H64.8777L64.31 42.7365L65.6364 44.2333ZM60 26C60 24.8954 60.8954 24 62 24V20C58.6863 20 56 22.6863 56 26H60ZM60 40.3667V26H56V40.3667H60ZM60 44.2333V40.3667H56V44.2333H60ZM60 51V44.2333H56V51H60ZM64.31 42.7365L56.6736 49.5031L59.3264 52.4969L66.9628 45.7302L64.31 42.7365ZM79 42.2333H65.6364V46.2333H79V42.2333ZM81 40.2333C81 41.3379 80.1046 42.2333 79 42.2333V46.2333C82.3137 46.2333 85 43.547 85 40.2333H81ZM81 26V40.2333H85V26H81ZM79 24C80.1046 24 81 24.8954 81 26H85C85 22.6863 82.3137 20 79 20V24ZM62 24H79V20H62V24Z" fill="#3E41DE" mask="url(#path-7-inside-2_108_7752)"/>
<path d="M71.8887 35.6543H69.3984C69.4049 35.0684 69.4505 34.5638 69.5352 34.1406C69.6263 33.7109 69.7793 33.3236 69.9941 32.9785C70.2155 32.6335 70.5085 32.2917 70.873 31.9531C71.179 31.6797 71.446 31.4193 71.6738 31.1719C71.9017 30.9245 72.0807 30.6706 72.2109 30.4102C72.3411 30.1432 72.4062 29.847 72.4062 29.5215C72.4062 29.1439 72.3477 28.8314 72.2305 28.584C72.1198 28.3301 71.9505 28.138 71.7227 28.0078C71.5013 27.8776 71.2214 27.8125 70.8828 27.8125C70.6029 27.8125 70.3424 27.8743 70.1016 27.998C69.8607 28.1152 69.6621 28.2975 69.5059 28.5449C69.3561 28.7923 69.278 29.1178 69.2715 29.5215H66.4395C66.459 28.6296 66.6641 27.8939 67.0547 27.3145C67.4518 26.7285 67.9824 26.2956 68.6465 26.0156C69.3105 25.7292 70.056 25.5859 70.8828 25.5859C71.7943 25.5859 72.5755 25.7357 73.2266 26.0352C73.8776 26.3281 74.3757 26.7611 74.7207 27.334C75.0658 27.9004 75.2383 28.5905 75.2383 29.4043C75.2383 29.9707 75.1276 30.4753 74.9062 30.918C74.6849 31.3542 74.3952 31.7611 74.0371 32.1387C73.679 32.5163 73.2852 32.9069 72.8555 33.3105C72.4844 33.6426 72.2305 33.9909 72.0938 34.3555C71.9635 34.7201 71.8952 35.153 71.8887 35.6543ZM69.1055 38.6719C69.1055 38.2552 69.2487 37.9102 69.5352 37.6367C69.8216 37.3568 70.2057 37.2168 70.6875 37.2168C71.1628 37.2168 71.5436 37.3568 71.8301 37.6367C72.123 37.9102 72.2695 38.2552 72.2695 38.6719C72.2695 39.0755 72.123 39.4173 71.8301 39.6973C71.5436 39.9772 71.1628 40.1172 70.6875 40.1172C70.2057 40.1172 69.8216 39.9772 69.5352 39.6973C69.2487 39.4173 69.1055 39.0755 69.1055 38.6719Z" fill="#3E41DE"/>
</svg>
