<svg width="65" height="65" viewBox="0 0 65 65" fill="none" xmlns="http://www.w3.org/2000/svg">
<rect width="65" height="65" rx="10" fill="#E8613E"/>
<path d="M33 11H46C48.2091 11 50 12.7909 50 15V50C50 52.2091 48.2091 54 46 54H20C17.7909 54 16 52.2091 16 50V37" stroke="white" stroke-width="2" stroke-linecap="round"/>
<path d="M21 48H44" stroke="white" stroke-width="2" stroke-linecap="round"/>
<path d="M21 42H44" stroke="white" stroke-width="2" stroke-linecap="round"/>
<path d="M33 36L44 36" stroke="white" stroke-width="2" stroke-linecap="round"/>
<path d="M34.2867 17.5584L23.7678 6.72931C22.8269 5.76064 21.3026 5.75637 20.3566 6.71975L9.7226 17.5488C8.18612 19.1134 9.2624 21.9999 11.4236 21.9999L13 21.9999L13 30C13 31.1046 13.8954 32 15 32H17C18.1046 32 19 31.1046 19 30V24C19 22.8954 19.8955 22 21 22H22.5C23.6046 22 24.5 22.8954 24.5 24V30C24.5 31.1046 25.3955 32 26.5 32H29C30.1046 32 31 31.1046 31 30L31.0001 22L32.5765 22C34.7313 22 35.8104 19.127 34.2867 17.5584Z" fill="#E8613E" stroke="white" stroke-width="2"/>
</svg>
